<?xml version="1.0" encoding="UTF-8"?>
<svg xmlns="http://www.w3.org/2000/svg" width="1200" height="630" viewBox="0 0 1200 630" role="img" aria-label="Brief a QA Partner">
  <defs>
    <linearGradient id="g" x1="0" y1="0" x2="1" y2="1">
      <stop offset="0%" stop-color="#4C1D95"/>
      <stop offset="100%" stop-color="#020617"/>
    </linearGradient>
    <radialGradient id="glow" cx="80%" cy="30%" r="50%">
      <stop offset="0%" stop-color="#C4B5FD" stop-opacity="0.45"/>
      <stop offset="100%" stop-color="#C4B5FD" stop-opacity="0"/>
    </radialGradient>
  </defs>
  <rect width="1200" height="630" fill="url(#g)"/>
  <rect width="1200" height="630" fill="url(#glow)"/>
  <circle cx="110" cy="520" r="180" fill="#C4B5FD" opacity="0.08"/>
  <circle cx="1180" cy="40" r="120" fill="#fff" opacity="0.05"/>
  <rect x="72" y="72" width="92" height="34" rx="17" fill="none" stroke="#fff" stroke-width="2" opacity="0.75"/>
  <text x="118" y="95" text-anchor="middle" fill="#fff" font-family="Arial, Helvetica, sans-serif" font-size="14" font-weight="700" letter-spacing="2">BLOG</text>
  <text x="72" y="220" fill="#fff" font-family="Arial, Helvetica, sans-serif" font-size="54" font-weight="800">Brief a QA Partner</text>
  <text x="72" y="280" fill="#fff" font-family="Arial, Helvetica, sans-serif" font-size="28" font-weight="500" opacity="0.78">Remote kickoff that works</text>
  <text x="72" y="560" fill="#fff" font-family="Arial, Helvetica, sans-serif" font-size="20" font-weight="600" opacity="0.55">TestSync Lab</text>
  <rect x="840" y="150" width="280" height="340" rx="24" fill="#fff" opacity="0.1" stroke="#C4B5FD" stroke-width="8"/>
        <rect x="880" y="210" width="200" height="18" rx="6" fill="#C4B5FD"/>
        <rect x="880" y="260" width="160" height="14" rx="6" fill="#fff" opacity="0.3"/>
        <rect x="880" y="300" width="180" height="14" rx="6" fill="#fff" opacity="0.22"/>
        <rect x="880" y="340" width="140" height="14" rx="6" fill="#fff" opacity="0.18"/>
        <circle cx="1120" cy="400" r="70" fill="#C4B5FD" opacity="0.35"/>
        <path d="M1095 400 L1115 420 L1155 370" stroke="#C4B5FD" stroke-width="12" fill="none" stroke-linecap="round"/>
</svg>