<?xml version="1.0" encoding="UTF-8"?>
<svg xmlns="http://www.w3.org/2000/svg" width="1200" height="630" viewBox="0 0 1200 630" role="img" aria-label="Functional vs Non-Functional Testing: What to Fund First">
  <rect width="1200" height="630" fill="#7F1D1D"/>
  <circle cx="160" cy="520" r="200" fill="#FCA5A5" opacity="0.12"/>
  <circle cx="1100" cy="-20" r="180" fill="#FFFFFF" opacity="0.06"/>
  
  <g transform="translate(64 56) scale(0.1015625)">
    <rect width="512" height="512" rx="112" fill="#1D4ED8"/>
    <path d="M156 210c28-48 92-72 148-58" fill="none" stroke="#93C5FD" stroke-width="28" stroke-linecap="round"/>
    <path d="M356 302c-28 48-92 72-148 58" fill="none" stroke="#93C5FD" stroke-width="28" stroke-linecap="round"/>
    <path d="M188 268l52 52 112-128" fill="none" stroke="#FFFFFF" stroke-width="44" stroke-linecap="round" stroke-linejoin="round"/>
  </g>
  <text x="136" y="92" fill="#FFFFFF" font-family="Arial, Helvetica, sans-serif" font-size="26" font-weight="700">TestSync Lab</text>
  
  <g transform="translate(650 120)">
    <rect x="0" y="0" width="460" height="360" rx="32" fill="#FFFFFF" opacity="0.1" stroke="#FECACA" stroke-width="6"/>
    <path d="M60 280 L140 200 L210 230 L300 110 L400 150" fill="none" stroke="#FCA5A5" stroke-width="16" stroke-linecap="round" stroke-linejoin="round"/>
    <circle cx="400" cy="150" r="16" fill="#FFFFFF"/>
    <path d="M60 300 H420" stroke="#FFFFFF" stroke-width="6" opacity="0.25"/>
    <text x="400" y="120" text-anchor="middle" fill="#FFFFFF" font-family="Arial, Helvetica, sans-serif" font-size="28" font-weight="800">p95</text>
  </g>
  <text x="72" y="470" fill="#FFFFFF" font-family="Arial, Helvetica, sans-serif" font-size="36" font-weight="800">When p95 becomes a sales</text>
  <text x="72" y="514" fill="#FFFFFF" font-family="Arial, Helvetica, sans-serif" font-size="36" font-weight="800">problem</text>
</svg>
