<?xml version="1.0" encoding="UTF-8"?>
<svg xmlns="http://www.w3.org/2000/svg" width="1200" height="630" viewBox="0 0 1200 630" role="img" aria-label="How to Choose a QA Agency: A Practical US Buyer’s Checklist">
  <rect width="1200" height="630" fill="#0F766E"/>
  <circle cx="160" cy="520" r="200" fill="#99F6E4" opacity="0.12"/>
  <circle cx="1100" cy="-20" r="180" fill="#FFFFFF" opacity="0.06"/>
  
  <g transform="translate(64 56) scale(0.1015625)">
    <rect width="512" height="512" rx="112" fill="#1D4ED8"/>
    <path d="M156 210c28-48 92-72 148-58" fill="none" stroke="#93C5FD" stroke-width="28" stroke-linecap="round"/>
    <path d="M356 302c-28 48-92 72-148 58" fill="none" stroke="#93C5FD" stroke-width="28" stroke-linecap="round"/>
    <path d="M188 268l52 52 112-128" fill="none" stroke="#FFFFFF" stroke-width="44" stroke-linecap="round" stroke-linejoin="round"/>
  </g>
  <text x="136" y="92" fill="#FFFFFF" font-family="Arial, Helvetica, sans-serif" font-size="26" font-weight="700">TestSync Lab</text>
  
  <g transform="translate(680 80)">
    <rect x="0" y="0" width="420" height="470" rx="40" fill="#FFFFFF" opacity="0.12"/>
    <rect x="36" y="40" width="348" height="390" rx="28" fill="#FFFFFF" opacity="0.1" stroke="#CCFBF1" stroke-width="6"/>
    <rect x="70" y="90" width="36" height="36" rx="10" fill="#99F6E4" opacity="0.9"/>
    <path d="M78 108 l10 10 18-22" fill="none" stroke="#FFFFFF" stroke-width="5" stroke-linecap="round"/>
    <rect x="130" y="98" width="260" height="18" rx="9" fill="#FFFFFF" opacity="0.35"/>
<rect x="70" y="150" width="36" height="36" rx="10" fill="#99F6E4" opacity="0.9"/>
    <path d="M78 168 l10 10 18-22" fill="none" stroke="#FFFFFF" stroke-width="5" stroke-linecap="round"/>
    <rect x="130" y="158" width="242" height="18" rx="9" fill="#FFFFFF" opacity="0.35"/>
<rect x="70" y="210" width="36" height="36" rx="10" fill="#99F6E4" opacity="0.9"/>
    <path d="M78 228 l10 10 18-22" fill="none" stroke="#FFFFFF" stroke-width="5" stroke-linecap="round"/>
    <rect x="130" y="218" width="224" height="18" rx="9" fill="#FFFFFF" opacity="0.35"/>
<rect x="70" y="270" width="36" height="36" rx="10" fill="#99F6E4" opacity="0.9"/>
    <path d="M78 288 l10 10 18-22" fill="none" stroke="#FFFFFF" stroke-width="5" stroke-linecap="round"/>
    <rect x="130" y="278" width="206" height="18" rx="9" fill="#FFFFFF" opacity="0.35"/>
<rect x="70" y="330" width="36" height="36" rx="10" fill="#99F6E4" opacity="0.9"/>
    <path d="M78 348 l10 10 18-22" fill="none" stroke="#FFFFFF" stroke-width="5" stroke-linecap="round"/>
    <rect x="130" y="338" width="188" height="18" rx="9" fill="#FFFFFF" opacity="0.35"/>
  </g>
  <text x="72" y="470" fill="#FFFFFF" font-family="Arial, Helvetica, sans-serif" font-size="36" font-weight="800">Ship with a clear go / no-go</text>
  <text x="72" y="514" fill="#FFFFFF" font-family="Arial, Helvetica, sans-serif" font-size="36" font-weight="800">list</text>
</svg>
