<?xml version="1.0" encoding="UTF-8"?>
<svg xmlns="http://www.w3.org/2000/svg" width="1200" height="630" viewBox="0 0 1200 630" role="img" aria-label="Retainer vs Hiring">
  <defs>
    <linearGradient id="g" x1="0" y1="0" x2="1" y2="1">
      <stop offset="0%" stop-color="#1E3A8A"/>
      <stop offset="100%" stop-color="#020617"/>
    </linearGradient>
    <radialGradient id="glow" cx="80%" cy="30%" r="50%">
      <stop offset="0%" stop-color="#60A5FA" stop-opacity="0.45"/>
      <stop offset="100%" stop-color="#60A5FA" stop-opacity="0"/>
    </radialGradient>
  </defs>
  <rect width="1200" height="630" fill="url(#g)"/>
  <rect width="1200" height="630" fill="url(#glow)"/>
  <circle cx="110" cy="520" r="180" fill="#60A5FA" opacity="0.08"/>
  <circle cx="1180" cy="40" r="120" fill="#fff" opacity="0.05"/>
  <rect x="72" y="72" width="92" height="34" rx="17" fill="none" stroke="#fff" stroke-width="2" opacity="0.75"/>
  <text x="118" y="95" text-anchor="middle" fill="#fff" font-family="Arial, Helvetica, sans-serif" font-size="14" font-weight="700" letter-spacing="2">BLOG</text>
  <text x="72" y="220" fill="#fff" font-family="Arial, Helvetica, sans-serif" font-size="54" font-weight="800">Retainer vs Hiring</text>
  <text x="72" y="280" fill="#fff" font-family="Arial, Helvetica, sans-serif" font-size="28" font-weight="500" opacity="0.78">Choose the faster path</text>
  <text x="72" y="560" fill="#fff" font-family="Arial, Helvetica, sans-serif" font-size="20" font-weight="600" opacity="0.55">TestSync Lab</text>
  <circle cx="920" cy="230" r="42" fill="#60A5FA"/>
        <circle cx="1040" cy="230" r="42" fill="#fff" opacity="0.35"/>
        <circle cx="980" cy="320" r="42" fill="#60A5FA" opacity="0.55"/>
        <path d="M860 420 C860 360 890 340 920 340 C950 340 980 360 980 420" fill="none" stroke="#60A5FA" stroke-width="12"/>
        <path d="M980 420 C980 360 1010 340 1040 340 C1070 340 1100 360 1100 420" fill="none" stroke="#fff" stroke-width="12" opacity="0.45"/>
</svg>